<?xml version="1.0" standalone="no"?>
<!DOCTYPE svg PUBLIC "-//W3C//DTD SVG 20010904//EN"
 "http://www.w3.org/TR/2001/REC-SVG-20010904/DTD/svg10.dtd">
<svg version="1.0" xmlns="http://www.w3.org/2000/svg"
 width="480.000000pt" height="480.000000pt" viewBox="0 0 480.000000 480.000000"
 preserveAspectRatio="xMidYMid meet">
<metadata>
Created by potrace 1.14, written by Peter Selinger 2001-2017
</metadata>
<g transform="translate(0.000000,480.000000) scale(0.100000,-0.100000)"
fill="#000000" stroke="none">
<path d="M850 4785 c-262 -61 -487 -249 -645 -540 -81 -148 -160 -389 -181
-550 -3 -27 -10 -72 -15 -100 -10 -61 -6 -2376 5 -2425 4 -19 18 -93 32 -165
62 -310 196 -570 396 -763 104 -101 219 -170 358 -213 l75 -24 1525 0 c1453 0
1528 1 1585 18 213 66 397 206 530 403 49 74 155 282 155 306 0 8 4 18 9 23
15 16 71 213 87 305 2 14 6 34 9 45 2 11 8 56 12 100 10 99 11 2303 1 2400
-10 101 -24 172 -52 279 -108 405 -340 717 -632 848 -154 70 -58 66 -1709 66
-1173 0 -1502 -3 -1545 -13z"/>
</g>
</svg>
