<svg width="89" height="62" viewBox="0 0 89 62" fill="none" xmlns="http://www.w3.org/2000/svg">
<mask id="mask0_1_61" style="mask-type:alpha" maskUnits="userSpaceOnUse" x="0" y="0" width="89" height="62">
<path d="M70.5158 0H18.4842C8.27563 0 0 8.14423 0 18.1907V43.788C0 53.8344 8.27563 61.9787 18.4842 61.9787H70.5158C80.7244 61.9787 89 53.8344 89 43.788V18.1907C89 8.14423 80.7244 0 70.5158 0ZM58.0151 32.2347L33.6782 43.6577C33.0297 43.962 32.2807 43.4967 32.2807 42.7898V19.2299C32.2807 18.5129 33.0494 18.0482 33.6993 18.3723L58.0362 30.5092C58.7598 30.87 58.7472 31.8912 58.0151 32.2347Z" fill="#F61C0D"/>
</mask>
<g mask="url(#mask0_1_61)">
<g clip-path="url(#clip0_1_61)">
<path d="M70.5158 -1H18.4842C8.27563 -1 0 7.27563 0 17.4842V43.4945C0 53.703 8.27563 61.9787 18.4842 61.9787H70.5158C80.7244 61.9787 89 53.703 89 43.4945V17.4842C89 7.27563 80.7244 -1 70.5158 -1ZM58.0151 31.7548L33.6782 43.3621C33.0297 43.6713 32.2807 43.1985 32.2807 42.4802V18.5402C32.2807 17.8116 33.0494 17.3394 33.6993 17.6687L58.0362 30.0015C58.7598 30.3681 58.7472 31.4058 58.0151 31.7548Z" fill="#F61C0D"/>
<path d="M34.5844 54.7922C34.5844 56.5936 33.8688 58.3212 32.595 59.595C31.3212 60.8687 29.5936 61.5843 27.7922 61.5843C26.9002 61.5843 26.017 61.4087 25.1929 61.0673C24.3689 60.726 23.6201 60.2257 22.9894 59.595C22.3587 58.9643 21.8584 58.2155 21.517 57.3914C21.1757 56.5674 21 55.6841 21 54.7922C21 53.9002 21.1757 53.017 21.517 52.1929C21.8584 51.3689 22.3587 50.6201 22.9894 49.9894C23.6201 49.3587 24.3689 48.8584 25.1929 48.517C26.017 48.1757 26.9002 48 27.7922 48C29.5936 48 31.3212 48.7156 32.595 49.9894C33.8688 51.2632 34.5844 52.9908 34.5844 54.7922Z" fill="#FFF59D"/>
<path fill-rule="evenodd" clip-rule="evenodd" d="M6.11839 45L-4.91175 56.0302C-4.95102 56.6174 -4.98046 57.2052 -5 57.7934C-4.99997 86.8509 18.5558 110.407 47.6133 110.407C67.6334 110.379 85.9033 98.9923 94.7454 81.0305L65.6443 48.5473L46.7611 68.4652L6.11839 45Z" fill="#009688"/>
<path fill-rule="evenodd" clip-rule="evenodd" d="M46.465 43L6 74.0366C9.1741 82.3881 15.793 89.7252 24.8639 94.9473C33.9349 100.169 44.9687 102.995 56.3105 103C67.9137 102.989 79.1842 100.026 88.3569 94.5754C97.5295 89.1251 104.086 81.4952 107 72.8808L80.3809 52.464L72.4834 62.9557L46.465 43Z" fill="#00897B"/>
</g>
<path d="M85.9935 18.1223C85.9796 9.59057 77.7493 3.28778 71.0617 3.16951C71.0617 3.16951 30.5169 3.41174 20.749 3.13888C10.9811 2.86601 4.00377 9.64895 4.00229 18" stroke="#80DEEA" stroke-width="8"/>
</g>
<defs>
<clipPath id="clip0_1_61">
<rect width="120" height="120" fill="white" transform="translate(-28)"/>
</clipPath>
</defs>
</svg>
