<svg width="480" height="480" viewBox="0 0 480 480" fill="none" xmlns="http://www.w3.org/2000/svg">
<g clip-path="url(#clip0_1_154)">
<mask id="mask0_1_154" style="mask-type:alpha" maskUnits="userSpaceOnUse" x="0" y="0" width="480" height="480">
<path d="M380.31 0H99.6901C44.6326 0 0 63.0521 0 140.831V339.004C0 416.782 44.6326 479.835 99.6901 479.835H380.31C435.368 479.835 480 416.782 480 339.004V140.831C480 63.0521 435.368 0 380.31 0ZM312.89 249.559L181.635 337.995C178.138 340.351 174.098 336.749 174.098 331.276V148.877C174.098 143.326 178.244 139.728 181.749 142.237L313.004 236.2C316.907 238.994 316.839 246.9 312.89 249.559Z" fill="#F61C0D"/>
</mask>
<g mask="url(#mask0_1_154)">
<path d="M380.31 -7.74193H99.6901C44.6326 -7.74193 0 56.3275 0 135.362V336.732C0 415.765 44.6326 479.835 99.6901 479.835H380.31C435.368 479.835 480 415.765 480 336.732V135.362C480 56.3275 435.368 -7.74193 380.31 -7.74193ZM312.89 245.844L181.635 335.707C178.138 338.1 174.098 334.44 174.098 328.879V143.537C174.098 137.896 178.244 134.241 181.749 136.79L313.004 232.27C316.907 235.108 316.839 243.142 312.89 245.844Z" fill="#F61C0D"/>
<path d="M186.523 424.198C186.523 438.144 182.663 451.519 175.793 461.381C168.923 471.242 159.606 476.782 149.891 476.782C145.08 476.782 140.316 475.422 135.872 472.779C131.428 470.137 127.389 466.264 123.988 461.381C120.586 456.498 117.888 450.701 116.047 444.321C114.206 437.941 113.258 431.103 113.258 424.198C113.258 417.292 114.206 410.454 116.047 404.074C117.888 397.695 120.586 391.898 123.988 387.015C127.389 382.132 131.428 378.259 135.872 375.615C140.316 372.973 145.08 371.613 149.891 371.613C159.606 371.613 168.923 377.153 175.793 387.015C182.663 396.876 186.523 410.251 186.523 424.198Z" fill="#FFF59D"/>
<path fill-rule="evenodd" clip-rule="evenodd" d="M32.998 348.387L-26.4904 433.782C-26.7021 438.328 -26.8609 442.879 -26.9663 447.433C-26.9661 672.394 100.076 854.764 256.791 854.764C364.764 854.547 463.299 766.392 510.986 627.333L354.037 375.85L252.195 530.053L32.998 348.387Z" fill="#009688"/>
<path fill-rule="evenodd" clip-rule="evenodd" d="M250.598 332.903L32.3595 573.187C49.4783 637.843 85.1757 694.647 134.097 735.076C183.02 775.502 242.528 797.381 303.697 797.419C366.276 797.334 427.061 774.395 476.532 732.197C526.002 690.001 561.363 630.931 577.079 564.238L433.515 406.173L390.922 487.399L250.598 332.903Z" fill="#00897B"/>
<path d="M463.785 140.302C463.71 74.2496 419.322 25.4538 383.254 24.5382C383.254 24.5382 164.586 26.4135 111.905 24.301C59.2239 22.1885 21.5933 74.7016 21.5854 139.355" stroke="#80DEEA" stroke-width="8"/>
</g>
</g>
<defs>
<clipPath id="clip0_1_154">
<rect width="480" height="480" fill="white"/>
</clipPath>
</defs>
</svg>
